<svg width="16" height="18" viewBox="0 0 16 18" fill="none" xmlns="http://www.w3.org/2000/svg">
<path opacity="0.8" fill-rule="evenodd" clip-rule="evenodd" d="M15.4915 16.3441C15.4915 16.8506 15.1125 17.2616 14.645 17.2616H10.7365V10.8269H12.7302L13.0289 8.31943H10.7365V6.71811C10.7365 5.99213 10.9228 5.49744 11.8837 5.49744L13.1096 5.49698V3.25387C12.8973 3.22355 12.1699 3.1552 11.3235 3.1552C9.55617 3.1552 8.34622 4.32383 8.34622 6.47009V8.31943H6.34746V10.8269H8.34622V17.2616H1.00003C0.53251 17.2616 0.153564 16.8506 0.153564 16.3441V1.56294C0.153564 1.05602 0.53251 0.645508 1.00003 0.645508H14.645C15.1125 0.645508 15.4915 1.05602 15.4915 1.56294V16.3441Z" fill="white"/>
</svg>
